<svg width="37" height="40" viewBox="0 0 37 40" fill="none" xmlns="http://www.w3.org/2000/svg">
<path d="M32.375 2.5C33.6522 2.5 34.6875 3.61929 34.6875 5V35C34.6875 36.3807 33.6522 37.5 32.375 37.5H4.625C3.34784 37.5 2.3125 36.3807 2.3125 35V5C2.3125 3.61929 3.34784 2.5 4.625 2.5H32.375ZM4.625 0C2.07068 0 0 2.23858 0 5V35C0 37.7614 2.07068 40 4.625 40H32.375C34.9293 40 37 37.7614 37 35V5C37 2.23858 34.9293 0 32.375 0H4.625Z" fill="black" fill-opacity="0.25"/>
<path d="M18.5 10C19.1386 10 19.6562 10.5596 19.6562 11.25V18.75H26.5938C27.2323 18.75 27.75 19.3096 27.75 20C27.75 20.6904 27.2323 21.25 26.5938 21.25H19.6562V28.75C19.6562 29.4404 19.1386 30 18.5 30C17.8614 30 17.3438 29.4404 17.3438 28.75V21.25H10.4062C9.76767 21.25 9.25 20.6904 9.25 20C9.25 19.3096 9.76767 18.75 10.4062 18.75H17.3438V11.25C17.3438 10.5596 17.8614 10 18.5 10Z" fill="black" fill-opacity="0.25"/>
</svg>
